:SAMPLES-PER-SECOND 30
:FULLY-SPECIFIED
:DEGREES
887
root  20.0214 38.9765 -13.0969 175.621 -59.7964 179.287
RightUpLeg  -1.25618 -12.0572 -9.3423
RightLeg  13.1829 7.63189 2.15264
RightFoot  -11.7406 -0.0435863 10.3639
RightToes  -2.9104e-010 0 -3.6325e-017
Spine  8.07702 0.851871 6.28085
Spine1  4.59373 2.95454 -7.27614
HEad  -28.8071 -9.15851 -14.6071
LeftShoulder1  1.12047 -0.544058 -21.2488
LeftArm  17.1118 -24.5898 -68.4691
LeftForeArm  85.6091 -79.9375 -82.3467
LeftHand  -0.437027 -1.16832 7.87753
RightShoulder  0.303096 -2.12663 15.5147
RightArm  8.11365 43.3016 70.2346
RightForeArm  148.543 74.9521 140.542
RightHand  -1.8544 15.5355 -10.6678
LeftUpLeg  -17.5092 10.5157 1.65723
LeftLeg  30.7406 6.71014 4.64034
LeftFoot  -14.6608 0.0848082 -0.10739
LeftToes  -3.37426e-010 -1.91496e-010 5.23909e-011
888
root  19.9837 38.9475 -12.8364 175.961 -62.8267 179.727
RightUpLeg  -1.15615 -13.0362 -9.96211
RightLeg  12.6351 5.81974 2.25152
RightFoot  -11.3886 -0.0727557 10.9882
RightToes  -2.9104e-010 0 -3.6325e-017
Spine  8.36123 0.964431 7.87461
Spine1  5.77267 3.40286 -7.89129
HEad  -25.1983 -6.01512 -15.6465
LeftShoulder1  0.85619 0.739579 -24.6921
LeftArm  19.1924 -16.9084 -62.3974
LeftForeArm  56.2165 -77.2539 -50.2452
LeftHand  -0.393108 -0.878086 7.44386
RightShoulder  0.134198 -2.94633 18.9204
RightArm  9.26986 36.1062 68.6306
RightForeArm  133.407 77.4668 128.505
RightHand  -1.70784 14.702 -10.2629
LeftUpLeg  -19.8027 11.5275 2.14818
LeftLeg  33.0254 7.22847 5.38322
LeftFoot  -14.0853 0.0866387 0.0925862
LeftToes  -3.37426e-010 -1.91496e-010 5.23909e-011
889
root  19.8494 38.9355 -12.5817 176.233 -65.2928 -179.705
RightUpLeg  -1.1074 -13.6476 -10.4913
RightLeg  12.0386 4.13746 2.35872
RightFoot  -10.5312 -0.149625 10.9742
RightToes  -2.9104e-010 0 -3.6325e-017
Spine  8.31941 1.36687 8.99421
Spine1  6.90036 4.02097 -8.08971
HEad  -21.5613 -1.83736 -16.8753
LeftShoulder1  0.669722 1.51499 -27.4794
LeftArm  19.7904 -9.97263 -56.3754
LeftForeArm  40.3894 -71.5432 -30.6154
LeftHand  -0.368543 0.197596 8.25532
RightShoulder  -0.119388 -3.90192 22.0859
RightArm  9.86736 29.6976 66.2136
RightForeArm  103.487 79.7764 101.448
RightHand  -1.65249 13.3124 -10.6218
LeftUpLeg  -21.2569 12.0571 3.17105
LeftLeg  34.2241 7.65566 5.91904
LeftFoot  -13.4967 0.0887708 0.411861
LeftToes  -3.37426e-010 -1.91496e-010 5.23909e-011
890
root  19.6148 38.8819 -12.3283 176.342 -67.3915 -178.938
RightUpLeg  -1.18271 -14.0021 -10.8904
RightLeg  11.8536 2.57417 2.34945
RightFoot  -10.3355 -0.170181 11.3279
RightToes  -2.9104e-010 0 -3.6325e-017
Spine  8.19232 1.56293 9.38194
Spine1  7.77559 4.25731 -7.85475
HEad  -19.2934 3.43261 -17.3444
LeftShoulder1  0.489506 2.11146 -29.0061
LeftArm  17.7023 -3.11459 -50.9594
LeftForeArm  35.6654 -64.8109 -20.5957
LeftHand  -0.301648 0.661335 7.40941
RightShoulder  -0.295244 -4.46231 23.71
RightArm  10.0138 24.0237 64.8834
RightForeArm  61.135 78.395 60.618
RightHand  -1.44432 13.4588 -9.27959
LeftUpLeg  -22.1535 12.2996 4.6267
LeftLeg  34.7568 7.92069 6.22367
LeftFoot  -13.251 0.0933656 0.827576
LeftToes  -3.37426e-010 -1.91496e-010 5.23909e-011
891
root  19.2689 38.8449 -12.0564 177.106 -69.0119 -178.585
RightUpLeg  -1.36936 -14.1687 -11.3812
RightLeg  11.3884 1.39491 2.16236
RightFoot  -10.1662 -0.191891 11.9179
RightToes  -2.9104e-010 0 -3.6325e-017
Spine  7.26117 1.75853 9.40653
Spine1  8.75743 4.5406 -8.1567
HEad  -17.4842 8.63049 -17.0819
LeftShoulder1  0.286804 2.70859 -29.9978
LeftArm  14.4901 2.80105 -46.0389
LeftForeArm  31.1536 -56.3274 -14.2495
LeftHand  -0.258684 1.40559 7.43276
RightShoulder  -0.368377 -4.65997 24.867
RightArm  10.6099 19.6604 63.5808
RightForeArm  32.446 71.8037 33.032
RightHand  -1.36321 13.1872 -8.90597
LeftUpLeg  -22.5976 12.4662 5.93408
LeftLeg  34.4422 8.72228 6.73489
LeftFoot  -13.1614 0.0957136 1.04761
LeftToes  -3.37426e-010 -1.91496e-010 5.23909e-011
892
root  18.8152 38.8058 -11.7199 177.424 -70.9781 -178.244
RightUpLeg  -0.469953 -14.3381 -12.2513
RightLeg  10.3166 0.154238 2.03036
RightFoot  -10.0541 -0.216208 13.0691
RightToes  -2.9104e-010 0 -3.6325e-017
Spine  7.16854 1.79928 9.41227
Spine1  8.90228 4.71302 -8.60505
HEad  -14.9605 11.614 -15.074
LeftShoulder1  0.0470675 3.37742 -30.6959
LeftArm  11.1182 6.24065 -42.4138
LeftForeArm  24.5834 -44.8303 -9.39315
LeftHand  -0.172481 2.77444 7.1609
RightShoulder  -0.411512 -4.76692 25.6439
RightArm  11.5243 16.0758 61.4769
RightForeArm  18.1592 62.665 20.6
RightHand  -1.4548 13.4435 -9.3536
LeftUpLeg  -21.9236 12.8714 7.08669
LeftLeg  33.4884 10.412 7.67236
LeftFoot  -13.1269 0.0951653 1.05135
LeftToes  -3.37426e-010 -1.91496e-010 5.23909e-011
893
root  18.2492 38.7899 -11.3406 178.13 -72.9192 -178.556
RightUpLeg  1.11561 -14.4249 -13.3877
RightLeg  8.6956 -1.20987 1.69332
RightFoot  -9.74338 -0.263349 14.0507
RightToes  -2.9104e-010 0 -3.6325e-017
Spine  7.00881 2.10185 9.06473
Spine1  9.03673 5.15123 -9.10737
HEad  -12.0525 12.3754 -11.9595
LeftShoulder1  -0.0769586 3.71208 -30.7728
LeftArm  5.58996 7.49553 -40.3305
LeftForeArm  17.3285 -30.5236 -6.02146
LeftHand  -0.0476334 4.90595 6.71903
RightShoulder  -0.444652 -4.85491 26.0175
RightArm  13.5047 13.1362 59.067
RightForeArm  10.5807 51.8799 13.4928
RightHand  -1.32843 13.3976 -8.59812
LeftUpLeg  -20.1767 13.5723 7.67565
LeftLeg  31.8821 13.7075 9.35283
LeftFoot  -12.643 0.0906633 1.84729
LeftToes  -3.37426e-010 -1.91496e-010 5.23909e-011
894
root  17.5412 38.7279 -10.8775 179.667 -75.0579 -179.694
RightUpLeg  2.64799 -14.8764 -14.9429
RightLeg  7.74647 -2.25073 1.38852
RightFoot  -9.43838 -0.305151 14.4316
RightToes  -2.9104e-010 0 -3.6325e-017
Spine  6.44437 2.29 8.91585
Spine1  9.26736 5.56817 -10.0844
HEad  -10.2417 13.3803 -9.8084
LeftShoulder1  -0.202144 4.04801 -31.0326
LeftArm  -5.63209 7.06164 -37.9854
LeftForeArm  12.6423 -15.4742 -4.23899
LeftHand  0.0703316 6.82682 7.64161
RightShoulder  -0.471894 -4.93264 26.173
RightArm  16.9223 10.3269 56.9522
RightForeArm  6.30657 41.0965 9.32702
RightHand  -1.20294 12.6711 -8.13082
LeftUpLeg  -17.4401 13.652 7.57498
LeftLeg  28.5286 15.6771 9.40989
LeftFoot  -11.2555 0.103894 1.14013
LeftToes  -3.37426e-010 -1.91496e-010 5.23909e-011
895
root  16.6837 38.6146 -10.3505 -175.388 -77.3022 175.731
RightUpLeg  3.88626 -15.9758 -17.3742
RightLeg  8.00019 -2.90637 0.844922
RightFoot  -9.79841 -0.268341 15.0093
RightToes  -2.9104e-010 0 -3.6325e-017
Spine  5.28573 2.46478 8.07461
Spine1  9.83868 5.93537 -11.2085
HEad  -8.29253 12.2566 -6.7284
LeftShoulder1  -0.222381 4.10098 -31.1093
LeftArm  -17.0605 7.61718 -34.9956
LeftForeArm  4.16628 -4.97241 -1.61495
LeftHand  0.218094 8.18933 10.3034
RightShoulder  -0.47092 -4.91354 26.5333
RightArm  22.08 7.30841 54.8381
RightForeArm  0.749235 30.6911 6.57246
RightHand  -1.1761 11.6038 -8.41463
LeftUpLeg  -14.6294 14.8374 6.24505
LeftLeg  23.7054 12.7742 6.36848
LeftFoot  -7.71747 0.164991 -4.42238
LeftToes  -3.37426e-010 -1.91496e-010 5.23909e-011
896
root  15.8937 38.4517 -9.81995 -163.36 -79.871 164.317
RightUpLeg  3.4226 -16.1432 -19.6876
RightLeg  11.0666 -4.85281 -0.943559
RightFoot  -10.8768 -0.140491 14.4514
RightToes  -2.9104e-010 0 -3.6325e-017
Spine  4.70062 2.31621 5.34176
Spine1  9.69992 5.51913 -11.1824
HEad  -7.48361 11.8226 -4.86807
LeftShoulder1  -0.263476 4.21317 -31.0294
LeftArm  -18.1178 10.1655 -31.5616
LeftForeArm  -12.2921 -1.17435 0.422069
LeftHand  0.270199 8.53005 11.1453
RightShoulder  -0.539823 -5.10014 27.0349
RightArm  25.9543 4.3331 53.2601
RightForeArm  -2.49157 20.5938 5.40567
RightHand  -1.14052 11.2905 -8.31851
LeftUpLeg  -15.5984 20.1781 3.03519
LeftLeg  23.9209 5.87337 3.1732
LeftFoot  -7.28466 0.123326 -2.20422
LeftToes  -3.37426e-010 -1.91496e-010 5.23909e-011
